<svg id="Calque_1" data-name="Calque 1" xmlns="http://www.w3.org/2000/svg" viewBox="0 0 250 250"><defs><style>.cls-1{fill:#00c9ff;}</style></defs><title>Plan de travail 1 copie 5</title><path class="cls-1" d="M128.5,157a3.57,3.57,0,1,0,3.57,3.57A3.57,3.57,0,0,0,128.5,157Z"/><path class="cls-1" d="M116.4,153.85A25,25,0,0,1,103.51,132a3.57,3.57,0,1,0-7.14,0,32.16,32.16,0,0,0,16.57,28.1,3.47,3.47,0,0,0,1.73.45,3.57,3.57,0,0,0,1.73-6.69Z"/><path class="cls-1" d="M185.86,34H150.08a3.58,3.58,0,0,0-3.52,3l-5.37,32.38h-2.1A38,38,0,0,0,128,45.49,39.44,39.44,0,0,0,100.22,34H100A39.39,39.39,0,0,0,60.7,72.84v0s0,0,0,0v.36a38.5,38.5,0,0,0,11.5,27.51h0a39.63,39.63,0,0,0,12.86,8.49c-.55,1.91-1,3.79-1.42,5.67a79.78,79.78,0,0,0-1.7,16v.68a45.47,45.47,0,0,0,13.59,32.51,46.3,46.3,0,0,0,22.1,12.24V209.1H92.51a3.59,3.59,0,0,0-3.57,2.75A3.5,3.5,0,0,0,92.47,216H164.3a3.59,3.59,0,0,0,3.57-2.75,3.5,3.5,0,0,0-3.53-4.15H139.19V177a46.28,46.28,0,0,0,35.36-45v-.27a102.32,102.32,0,0,0-1.27-15.33,2.73,2.73,0,0,0,0-.41,3.54,3.54,0,0,0-.35-1.53,76.76,76.76,0,0,0-2.35-9.85L160.24,71.86a3.57,3.57,0,0,0-3.4-2.49h-8.56L153,40.9h32.71a3.57,3.57,0,0,0,3.62-3.14A3.46,3.46,0,0,0,185.86,34ZM132.08,69.37H109.22L125.48,53A31.24,31.24,0,0,1,132.08,69.37ZM103.82,40.81a31.94,31.94,0,0,1,16.59,6.9L103.82,64.42Zm-1.29,35.46h37.54l-6,36.23H91.69c.32-1.2.67-2.41,1.07-3.65,0,0,0,0,0-.06Zm-5.61-35.5V64.64L80.14,47.86A31.6,31.6,0,0,1,96.92,40.77ZM75,53.18,91.14,69.37H68.23A32.32,32.32,0,0,1,75,53.18ZM68.14,76.27H92a3.47,3.47,0,0,0-.65.51L75,93.11A31.86,31.86,0,0,1,68.14,76.27ZM80.06,98.18,92.22,86l-5,16.52A32.3,32.3,0,0,1,80.06,98.18ZM132.29,209.1h-6.9v-31h6.9Zm35.36-77.47v.26h0a39.27,39.27,0,1,1-78.54,0v-.6a75.57,75.57,0,0,1,1-11.89h76.64A95.46,95.46,0,0,1,167.65,131.63Zm-13.2-55.36,9.72,30.52c.55,1.72,1.06,3.65,1.51,5.71H141.16l6-36.23Z"/></svg>