<svg id="Calque_1" data-name="Calque 1" xmlns="http://www.w3.org/2000/svg" viewBox="0 0 250 250"><defs><style>.cls-1{fill:#00c9ff;}</style></defs><title>Plan de travail 1 copie 3</title><path class="cls-1" d="M125,212.41c-26.52,0-53,.1-79.56,0-10.89-.06-11.23-.61-11.37-11.52a41.12,41.12,0,0,1,.45-9.3c.37-1.66,2.29-4.19,3.58-4.23,6.42-.2,8.77-3.47,9.26-9.45.11-1.31,2.91-3.48,4.37-3.4,6.83.38,7.38-3.55,7.34-8.84-.15-19.24-.12-38.48,0-57.72,0-4.58-.19-8.17-6.37-8-5.78.11-6.34-4.41-6.1-8.79s-1.23-6.82-6.06-6.75c-3.46.06-5.87-1.6-6.33-5.41-.58-4.77,1.42-8.28,5.66-10C46,66.36,52.5,64.5,58.74,62.07c18.75-7.3,37.54-14.52,56.12-22.24,6.63-2.75,12.27-3.18,19.24-.32,24.81,10.14,50,19.47,75,29,5.12,2,7.58,5.4,6.59,10.74-.32,1.71-2.08,4.52-3.14,4.5-7.39-.1-10.16,3.09-9.37,10.4.4,3.65-2.31,5.89-5.87,5.72-6.17-.3-6.44,3.38-6.41,8,.11,19.76,0,39.52.07,59.28,0,1.55-.38,4,.41,4.51,3.61,2.34,8.23,3.48,11.21,6.37,2.37,2.3-.62,8.84,6.19,8.58,5.45-.21,7.2,3.09,7.1,8,0,1,0,2.08,0,3.12.35,14.39.19,14.65-14.5,14.69C175.94,212.47,150.46,212.41,125,212.41ZM45.87,75.83l0,1.5q52.12,0,104.23,0a109.22,109.22,0,0,1,12.41.53c1,.11,2.44,2,2.43,3.05s-1.5,2.88-2.49,3a109.31,109.31,0,0,1-12.41.52c-28.55,0-57.1,0-85.65.06a38.36,38.36,0,0,0-9.08,1c-.75.18-1.21,2.54-1.33,3.94-.07.83.65,2.35,1.26,2.49a34.83,34.83,0,0,0,7.52,1c41.53,0,83-.05,124.58.13,6.17,0,10.21-1.17,9-8.35-1.16-6.89,4.33-6.94,8.79-8.55-22.86-8.93-45.51-17.44-67.85-26.69-8.85-3.66-16.61-3.19-25.32.43C90.08,58.93,67.91,67.23,45.87,75.83Zm79.25,129.44q38.9,0,77.79,0c3.58,0,6-.91,5.87-5.16-.11-3.24-.12-6-4.56-6.56-2.62-.35-7.25-2.51-7.17-3.58.76-10.25-6.18-8.78-12.32-8.78q-25.68,0-51.35,0-35.77,0-71.57,0c-4.19,0-8.64-.52-8.23,6,.29,4.52-2.11,6.71-6.58,6.47-5-.27-6,2.45-5.87,6.77.21,5.74,4.3,4.83,7.75,4.83Q87,205.33,125.12,205.27ZM112,151.71h-.12c0-6.74.62-13.55-.14-20.2-1.12-9.68-7-14.1-15.72-13-6.39.83-10.51,5.79-11.1,14.61-.48,7.23-.27,14.51-.08,21.77.59,22.64-4.75,18.6,19.83,19.21,5,.12,7.88-1.06,7.41-6.88C111.71,162.1,112,156.89,112,151.71Zm53.06-2h-.16c0-6.22.67-12.53-.15-18.64-1.27-9.5-7.46-13.84-16.16-12.44-6.19,1-10.25,6.1-10.61,15-.44,10.87.18,21.78-.23,32.65-.24,6.18,2.05,8.06,8,7.88,23.33-.68,18.72,3.25,19.27-18.27C165.15,153.82,165.1,151.74,165.1,149.67ZM77.68,138c0-10.85-.09-21.71,0-32.57,0-4.08-1.91-5.39-5.64-5.37-3.5,0-6,.77-6,5q.09,31.8,0,63.59c0,4,1.89,5.42,5.65,5.37,3.49,0,6-.76,6-5C77.63,158.69,77.69,148.35,77.68,138Zm53.07.15c0-10.86-.06-21.72,0-32.57,0-3.88-1.59-5.58-5.49-5.53-3.46,0-6.1.66-6.1,4.92q0,31.78,0,63.58c0,3.89,1.63,5.4,5.5,5.55,4.83.19,6.24-2,6.16-6.49C130.63,157.8,130.76,148,130.75,138.16Zm41.49-2.67c0,10.86.14,21.72-.06,32.57-.08,4.86,2.13,6.18,6.6,6.06,4.31-.11,5-2.52,5-6,0-20.68-.09-41.36.05-62,0-4.86-2.13-6.18-6.59-6.06s-5.06,2.52-5.05,6C172.27,115.84,172.25,125.67,172.24,135.49Zm-60.77-21.57c.29-13.75.29-13.75-11.42-13.85-1.54,0-3.08,0-4.62,0-10.29.17-10.32.17-10.42,11.14,0,.78.78,1.58,1.21,2.36C98.43,108.49,98.43,108.49,111.47,113.92Zm52.65.08c1-13.87,1-13.88-11.68-13.93-3.08,0-6.17.12-9.25,0-4.05-.16-5.39,2-5.27,5.66.08,2.52,0,5,0,9.9C147.26,106.72,155.72,108.89,164.12,114Z"/><path class="cls-1" d="M134.65,61.86c.17,5.92-3.49,9.82-9.37,10s-9.82-3.48-10-9.38,3.48-9.81,9.38-10S134.48,56,134.65,61.86Z"/></svg>