<svg id="Calque_1" data-name="Calque 1" xmlns="http://www.w3.org/2000/svg" viewBox="0 0 250 250"><defs><style>.cls-1{fill:none;}.cls-2{fill:#00c9ff;}</style></defs><title>Plan de travail 1</title><path class="cls-1" d="M48,201H201V48H48Zm143-19a9,9,0,0,1-9,9H154.79a9.22,9.22,0,0,1-9.32-8.77,9,9,0,0,1,9-9.23H173V154.79a9.22,9.22,0,0,1,8.77-9.32,9,9,0,0,1,9.23,9ZM154.79,59H182a9,9,0,0,1,9,9V95.3a9.16,9.16,0,0,1-7.06,9,9.73,9.73,0,0,1-1.93.2,9,9,0,0,1-9-9V77H154.47a9,9,0,0,1-9-9.24A9.23,9.23,0,0,1,154.79,59Zm-43.28,57H116v-4.49a9.22,9.22,0,0,1,8.77-9.32,9,9,0,0,1,9.23,9V116h4.5a9.23,9.23,0,0,1,9.32,8.77,9,9,0,0,1-9,9.23H134v4.53a9.16,9.16,0,0,1-7.92,9.23,9.42,9.42,0,0,1-1.06.06,9,9,0,0,1-9-9V134h-4.82a9,9,0,0,1-9-9.23A9.22,9.22,0,0,1,111.51,116ZM59,68a9,9,0,0,1,9-9H95.3a9,9,0,0,1,7.23,14.66,9,9,0,0,1-7,3.34H77V95.21a9.23,9.23,0,0,1-8.76,9.32H68a9,9,0,0,1-9-9Zm0,86.76a9.23,9.23,0,0,1,8.76-9.32,9,9,0,0,1,9.24,9V173H95.21a9.23,9.23,0,0,1,9.32,8.76,9,9,0,0,1-9,9.24H68.07A9.08,9.08,0,0,1,59,181.93Z"/><path class="cls-2" d="M68.07,187H95.53a5,5,0,0,0,5-5.13A5.21,5.21,0,0,0,95.21,177H73V154.47a5,5,0,0,0-5-5h-.13A5.21,5.21,0,0,0,63,154.79v27.14A5.07,5.07,0,0,0,68.07,187Z"/><path class="cls-2" d="M111.18,130H120v8.82a5,5,0,0,0,5.62,5,5.23,5.23,0,0,0,4.38-5.25V130h8.82a5,5,0,0,0,5-5.13A5.21,5.21,0,0,0,138.5,120H130v-8.82a5,5,0,0,0-1.51-3.58,4.87,4.87,0,0,0-3.62-1.42,5.21,5.21,0,0,0-4.87,5.33V120h-8.49a5.21,5.21,0,0,0-5.33,4.87,5,5,0,0,0,5,5.13Z"/><path class="cls-2" d="M181.87,149.47a5.2,5.2,0,0,0-4.87,5.32V177H154.47a5,5,0,0,0-5,5.13,5.2,5.2,0,0,0,5.32,4.87H182a5,5,0,0,0,5-5v-27.5a5,5,0,0,0-1.51-3.58A4.85,4.85,0,0,0,181.87,149.47Z"/><path class="cls-2" d="M154.47,73H177V95.53a5,5,0,0,0,6.11,4.88A5.11,5.11,0,0,0,187,95.3V68a5,5,0,0,0-5-5H154.79a5.21,5.21,0,0,0-5.32,4.87,5,5,0,0,0,5,5.13Z"/><path class="cls-2" d="M210.76,34H39.24A5.25,5.25,0,0,0,34,39.24V210.76A5.25,5.25,0,0,0,39.24,216H210.76a5.25,5.25,0,0,0,5.24-5.24V39.24A5.25,5.25,0,0,0,210.76,34ZM205,205H44V44H205Z"/><path class="cls-2" d="M68.13,100.53A5.21,5.21,0,0,0,73,95.21V73H95.53a5,5,0,0,0,4.88-6.11A5.12,5.12,0,0,0,95.3,63H68a5,5,0,0,0-5,5v27.5a5,5,0,0,0,5.13,5Z"/></svg>