<?xml version="1.0"?>
<svg xmlns="http://www.w3.org/2000/svg" height="512px" viewBox="0 0 60 61" width="512px" class=""><g><g id="019---Football" transform="translate(-1 -1)"><path id="Shape" d="m42.35 24.16c-4.3466053-5.756357-11.1419131-9.1402029-18.355-9.1402029s-14.00839475 3.3838459-18.355 9.1402029c-9.64 12.72-3.56 31.21 11.49 35.84 9.5351449 2.9999693 19.9162744-.5022394 25.6854229-8.6653106 5.7691484-8.1630712 5.605291-19.1178175-.4054229-27.1046894 0 0-.03-.05-.06-.07zm2.57 12.21-5.41-3.37 2.37-6c1.7398252 2.8390884 2.7816568 6.0502601 3.04 9.37zm-3.49 13.33-8.08-.53-3.22-4.33 2.68-7.15 5.44-3.16 6.75 4.23c-.136933 3.909933-1.3743421 7.7018813-3.57 10.94zm-26.78-.53-8.08.54c-2.19449814-3.242414-3.43170479-7.0372075-3.57-10.95l6.71-4.23 5.44 3.16 2.68 7.15zm-8.53-22.17 2.37 6-5.41 3.37c.25834323-3.3197399 1.30017483-6.5309116 3.04-9.37zm13.57 17-2.51-6.7 6.82-6 6.82 6-2.51 6.7zm20.82-18.94-3 7.61-5.35 3.11-7.16-6.23v-6.08l6.2-5.17c3.6691258 1.3483349 6.8920589 3.6885098 9.31 6.76zm-11.6-7.46-4.91 4.1-4.91-4.1c3.2238548-.8048844 6.5961452-.8048844 9.82 0zm-12.11.7 6.2 5.17v6.08l-7.12 6.23-5.35-3.11-3-7.61c2.40703946-3.0655358 5.6154307-5.4052041 9.27-6.76zm-8.8 33.31 6.37-.42 1.63 6.21c-3.0890053-1.266635-5.8314972-3.2515135-8-5.79zm10.2 6.57-2-7.82 3.3-4.36h9l3.23 4.36-2 7.82c-3.7532622 1.0842613-7.7367378 1.0842613-11.49 0zm13.8-.78 1.57-6.21 6.37.42c-2.1514938 2.5308026-4.8726579 4.5151276-7.94 5.79z" data-original="#000000" class="active-path" data-old_color="#000000" fill="#41DEE5"/><path id="Shape" d="m59.29 1.29-16 16c-.3921221.3921222-.3921221 1.0278778 0 1.42.3921222.3921221 1.0278778.3921221 1.42 0l16-16c.2536586-.25365856.3527236-.62337399.2598781-.96987805-.0928455-.34650407-.363496-.61715455-.71-.71000002-.3465041-.09284548-.7162195.00621948-.9698781.25987807z" data-original="#000000" class="active-path" data-old_color="#000000" fill="#41DEE5"/><path id="Shape" d="m33 14c.265803.0015368.5212812-.1028135.71-.29l9-9c.2536586-.25365856.3527236-.62337399.2598781-.96987806-.0928455-.34650406-.363496-.61715454-.71-.71000002-.3465041-.09284548-.7162195.00621949-.9698781.25987808l-9 9c-.2884599.2860905-.3751619.7182668-.219371 1.0934815.155791.3752147.5231059.6188811.929371.6165185z" data-original="#000000" class="active-path" data-old_color="#000000" fill="#41DEE5"/><path id="Shape" d="m27.29 3.29-9 9c-.2536586.2536586-.3527235.623374-.259878.969878.0928454.3465041.3634959.6171546.71.71.346504.0928455.7162194-.0062194.969878-.259878l9-9c.3921222-.39212217.3921222-1.02787783 0-1.42s-1.0278778-.39212217-1.42 0z" data-original="#000000" class="active-path" data-old_color="#000000" fill="#41DEE5"/><path id="Shape" d="m57.29 32.29-9 9c-.3921222.3921222-.3921222 1.0278778 0 1.42s1.0278778.3921222 1.42 0l9-9c.3921222-.3921222.3921222-1.0278778 0-1.42s-1.0278778-.3921222-1.42 0z" data-original="#000000" class="active-path" data-old_color="#000000" fill="#41DEE5"/><path id="Shape" d="m57.29 18.29-9 9c-.3921222.3921222-.3921222 1.0278778 0 1.42s1.0278778.3921222 1.42 0l9-9c.2536586-.2536586.3527235-.623374.259878-.969878-.0928454-.3465041-.3634959-.6171546-.71-.71-.346504-.0928455-.7162194.0062194-.969878.259878z" data-original="#000000" class="active-path" data-old_color="#000000" fill="#41DEE5"/></g></g> </svg>
