<svg id="Calque_1" data-name="Calque 1" xmlns="http://www.w3.org/2000/svg" viewBox="0 0 250 250"><defs><style>.cls-1{fill:#00c9ff;}</style></defs><title>Plan de travail 1 copie 4</title><path class="cls-1" d="M102.09,166.81l-1.42,13.45a3.86,3.86,0,0,0,1,3,3.82,3.82,0,0,0,2.86,1.28h40.7a3.85,3.85,0,0,0,3.83-4.26l-1.42-13.45h53.8A14.59,14.59,0,0,0,216,152.22V51.49A14.57,14.57,0,0,0,201.42,37H48.59A14.6,14.6,0,0,0,34,51.55V152.22a14.59,14.59,0,0,0,14.59,14.59Zm40.1,9.84h-31.6l1-9.84h29.51ZM48.61,44.82H201.39a6.74,6.74,0,0,1,6.74,6.74v88.69H41.87V51.56A6.74,6.74,0,0,1,48.61,44.82ZM41.87,152.2v-4.08H208.13v4.08a6.74,6.74,0,0,1-6.74,6.74H48.61A6.74,6.74,0,0,1,41.87,152.2Z"/><path class="cls-1" d="M200.79,207.25l-7.65-14.71a3.94,3.94,0,0,0-3.48-2.12H60a3.94,3.94,0,0,0-3.49,2.12l-7.65,14.71a4,4,0,0,0-.47,2.31,3.91,3.91,0,0,0,3.89,3.49H197.38a3.92,3.92,0,0,0,3.89-3.49A4,4,0,0,0,200.79,207.25ZM58.26,205.18l3.68-6.89H187.7l3.67,6.89Z"/></svg>