<svg id="Calque_1" data-name="Calque 1" xmlns="http://www.w3.org/2000/svg" viewBox="0 0 250 250"><defs><style>.cls-1{fill:#fff;}</style></defs><title>Plan de travail 1</title><path class="cls-1" d="M198.39,74.59A21.43,21.43,0,0,0,173,95.48v7.07H148.54c8.64-14.66,13-25.65,13-32.72a35.82,35.82,0,0,0-71.64,0c0,7.07,4.37,18.06,13,32.72H77V96c0-10.45-7.29-19.74-17.58-21.54a21.45,21.45,0,0,0-25.4,21v19.37a3.69,3.69,0,0,0,2.67,3.63A3.59,3.59,0,0,0,41.19,115V95.15A14.52,14.52,0,0,1,52.13,80.88,14.36,14.36,0,0,1,69.85,94.82v84.29a21.45,21.45,0,0,0-28.66,0V143.35a3.67,3.67,0,0,0-2.68-3.62A3.58,3.58,0,0,0,34,143.18v51.23c0,12.2,10.61,21.34,22.51,21.34H194.65A21.35,21.35,0,0,0,216,194.41V96.14C216,85.68,208.7,76.37,198.39,74.59ZM180.18,94.82a14.35,14.35,0,0,1,17.66-14,14.5,14.5,0,0,1,11,14.27V179a21.08,21.08,0,0,0-8.67-4.66,21.62,21.62,0,0,0-20,4.74ZM173,145.54H127.16L89.55,109.72h16.28c7.82,12.49,15.52,22.81,15.6,22.92a3.58,3.58,0,0,0,5.74,0c.08-.11,7.78-10.43,15.6-22.92H173ZM125.07,41a28.49,28.49,0,0,1,28.46,28.46c0,13.21-20.83,43.76-28.46,54.43C117.33,113,96.61,82.53,96.61,69.44A28.5,28.5,0,0,1,125.07,41ZM45.4,183.85c12.05-9.12,25.39,0,24.45,11.68a1,1,0,0,0,.26.77c3.1,3.24,6.9,1.09,6.9-1.94v-59.3l36.11,34.39L72,208.59H56.68c-10.8,0-20.3-10.94-12.22-23.72A4,4,0,0,1,45.4,183.85ZM121,171.78a3.6,3.6,0,0,0,1.11-2.6,3.56,3.56,0,0,0-1.11-2.59L77,124.66V109.72h3.58c.25.23,42.4,40.37,44.1,42a3.6,3.6,0,0,0,2.47,1h47.29v12.9H147.21a3.57,3.57,0,0,0-2.51,1l-41.95,42H82.39Zm73.26,36.81H111.45l35.82-35.83H173v21.35a3.68,3.68,0,0,0,2.68,3.62,3.59,3.59,0,0,0,4.49-3.47,14.36,14.36,0,0,1,18.2-13.83,14.17,14.17,0,0,1,10.38,15.35A14.42,14.42,0,0,1,194.3,208.59Z"/><path class="cls-1" d="M125.07,87.23a17.79,17.79,0,1,0-17.78-17.79A17.81,17.81,0,0,0,125.07,87.23Zm0-28.46A10.67,10.67,0,1,1,114.4,69.44,10.69,10.69,0,0,1,125.07,58.77Z"/><path class="cls-1" d="M37.56,132.77A3.56,3.56,0,1,0,34,129.21,3.57,3.57,0,0,0,37.56,132.77Z"/></svg>