<svg id="Calque_1" data-name="Calque 1" xmlns="http://www.w3.org/2000/svg" viewBox="0 0 250 250"><defs><style>.cls-1{fill:#00c9ff;}</style></defs><title>Plan de travail 1 copie 2</title><g id="surface1"><path class="cls-1" d="M195.57,34a8.07,8.07,0,0,0-5.92,3.08c-.08.11-.15.2-.21.3L187,41.25l-2.4-2.38a3.75,3.75,0,0,0-2.73-1.14,3.78,3.78,0,0,0-2.63,6.5l3.57,3.57-3.2,5L177,50.24a3.77,3.77,0,0,0-2.73-1.14,3.79,3.79,0,0,0-2.64,6.51l3.77,3.76-4.05,6.33-40.63,40.63L37,125.63a3.8,3.8,0,0,0-1.91,6.4L118,214.89a3.81,3.81,0,0,0,3.78.94,3.74,3.74,0,0,0,2.62-2.86l19.3-93.69,40.62-40.64,28.31-18.09a3,3,0,0,0,.3-.19,8.23,8.23,0,0,0,.76-12.2l-11.81-11.8A8.13,8.13,0,0,0,195.57,34Zm.48,7.5a.59.59,0,0,1,.43.21l11.79,11.79h0a.51.51,0,0,1-.06.83L182.43,70.84l-3.27-3.28,16.49-25.8A.59.59,0,0,1,196.05,41.52ZM174.31,73.46l2.23,2.22L140.18,112,138,109.81Zm-43,40.48,4.7,4.7-17.69,85.92L45.43,131.63Zm-19.61,18.62a5.69,5.69,0,1,0,5.69,5.69A5.69,5.69,0,0,0,111.74,132.56ZM87.05,143.9a3.8,3.8,0,0,0-2.64,6.52l15.17,15.16a3.79,3.79,0,0,0,6.4-1.67,3.78,3.78,0,0,0-1-3.69L89.77,145.05A3.8,3.8,0,0,0,87.05,143.9Z"/></g></svg>