<svg id="Calque_1" data-name="Calque 1" xmlns="http://www.w3.org/2000/svg" viewBox="0 0 250 250"><defs><style>.cls-1{fill:#fff;}</style></defs><title>Plan de travail 1 copie 3</title><path class="cls-1" d="M194.54,182.31a17.59,17.59,0,0,0-7.95-31.11,17.76,17.76,0,0,0-20.94,17.37,17.57,17.57,0,0,0,6.66,13.74,32.57,32.57,0,0,0-15.54,11.82v-3.2a31.78,31.78,0,0,0-20.93-29.82,17.38,17.38,0,0,0,5.71-8.36,11.33,11.33,0,0,0,3.67.64,11.57,11.57,0,0,0,11.55-11.56v-6.77l8.94,8.94a11.91,11.91,0,0,0,6.25,3.42,12.32,12.32,0,0,0,2.17.19,11.54,11.54,0,0,0,11.52-11.55,11.3,11.3,0,0,0-3.21-8L160.6,102a49.09,49.09,0,0,0-11.07-9.76L120.71,73.75A31.83,31.83,0,0,0,107,68.9l-13.3-1.48,3.57-3.57L73,39.55,34.27,78.3l24.3,24.3,2.1-2.1,3.18,6.36A54.09,54.09,0,0,0,80.32,126.3l25.91,18.85a14.19,14.19,0,0,0,1.53.93c-.05.51-.09,1-.09,1.53a17.31,17.31,0,0,0,6.49,13.5,31.78,31.78,0,0,0-20.93,29.82v3.2A32.65,32.65,0,0,0,77.69,182.3a17.58,17.58,0,0,0-8-31.1,17.75,17.75,0,0,0-20.93,17.37,17.57,17.57,0,0,0,6.65,13.74A32.36,32.36,0,0,0,34,212.66v2.94H98.62v-2.92a31.9,31.9,0,0,0-5.26-17.54h63.28a31.9,31.9,0,0,0-5.26,17.54v2.92H216v-2.94a32.36,32.36,0,0,0-21.46-30.35ZM54.33,168.77a11.76,11.76,0,1,1,11.76,11.76A11.77,11.77,0,0,1,54.33,168.77Zm20,19-8.19,9-8.18-9a26,26,0,0,1,16.37,0ZM39.8,210.22A26.47,26.47,0,0,1,52.3,190.6l13.79,15.17,13.8-15.17a26.5,26.5,0,0,1,12.5,19.62Zm87.65-79.53a13,13,0,0,0-3.52-5.35L102.41,106l22.71,6.2a12.3,12.3,0,0,1,5.51,3.21,12.56,12.56,0,0,1,3.52,8.92v8.65A17.33,17.33,0,0,0,127.45,130.69Zm51.12,1.58a5.89,5.89,0,0,1-5.29,9.94,6.37,6.37,0,0,1-3.25-1.85l-13.26-13.25V106.29ZM40.85,77.63,72,46.51,88.39,62.93,57.27,94.06ZM82.4,121.81a49.65,49.65,0,0,1-5.86-5,48.66,48.66,0,0,1-9.22-12.7l-4.14-8.22L87.32,72l18.34,2a27,27,0,0,1,11.47,4l29.55,18.86a44.68,44.68,0,0,1,4.7,3.49v41.76a6.05,6.05,0,0,1-3.82,5.74,5.93,5.93,0,0,1-5.1-.44,17.55,17.55,0,0,0-2.92-8.91v-14a18.15,18.15,0,0,0-13.46-18L95.9,98.38a3,3,0,0,0-2.58.5,3,3,0,0,0-1.17,2.33v2.94a3,3,0,0,0,1,2.19l26.23,23.43a7.23,7.23,0,0,1,1.42,9,7.4,7.4,0,0,1-6.45,3.56h-1.08A7.28,7.28,0,0,1,109,141Zm30.73,25.95v0c.13,0,.24,0,.37,0h1.22a13.1,13.1,0,0,0,12.94-11.4,11.75,11.75,0,1,1-14.53,11.4Zm20,19.39-8.19,9-8.19-9a26.07,26.07,0,0,1,16.38,0ZM98.59,189.76a26.57,26.57,0,0,1,12.5-19.63l13.8,15.18,13.79-15.18a26.51,26.51,0,0,1,12.5,19.63Zm73.34-21a11.76,11.76,0,1,1,11.76,11.76A11.77,11.77,0,0,1,171.93,168.77Zm19.95,19-8.19,9-8.19-9a26.07,26.07,0,0,1,16.38,0Zm-34.49,22.49a26.47,26.47,0,0,1,12.5-19.62l13.8,15.17,13.79-15.17A26.47,26.47,0,0,1,210,210.22Z"/><path class="cls-1" d="M215.16,38.55,211,34.4,189.57,55.84l-3.8-3.8-4.16,4.15,8,8Z"/><path class="cls-1" d="M189.57,89.39a8.82,8.82,0,1,0-8.82-8.82A8.83,8.83,0,0,0,189.57,89.39Zm0-11.76a2.94,2.94,0,1,1-2.94,2.94A2.94,2.94,0,0,1,189.57,77.63Z"/><path class="cls-1" d="M139.54,54.07h35.54v5.38H139.54Z"/><path class="cls-1" d="M139.54,77.76h23.69v5.38H139.54Z"/><path class="cls-1" d="M169.69,77.76h5.39v5.38h-5.39Z"/><path class="cls-1" d="M139.54,65.91h35.54V71.3H139.54Z"/></svg>