<svg id="Calque_1" data-name="Calque 1" xmlns="http://www.w3.org/2000/svg" viewBox="0 0 250 250"><defs><style>.cls-1{fill:#fff;}</style></defs><title>Plan de travail 1 copie</title><path class="cls-1" d="M201,78.24c-1.82-8.33-6.47-15.18-14.21-21a48.1,48.1,0,0,0-20.1-8.58,96.25,96.25,0,0,0-11.62-1.41,76.65,76.65,0,0,0-11.87.19c-4.17.33-8.3,1-11.43,1.5A117.11,117.11,0,0,0,112.7,53.9a129.34,129.34,0,0,0-21,9.56A115.82,115.82,0,0,0,68.79,80.32,94.48,94.48,0,0,0,55.37,96.18c-4.08,6.1-6.6,11.43-7.92,16.79-1.64,6.65-2.1,12.12-1.46,17.2a33.72,33.72,0,0,0,9.43,19.63,45.12,45.12,0,0,0,12.83,9.1c8.55,4.12,17.48,6,28.08,6h.29a95.07,95.07,0,0,0,13.68-1.25,117.16,117.16,0,0,0,18.11-4.37,10.94,10.94,0,0,0,1.66-.69,2,2,0,0,0,1-2.31,2.22,2.22,0,0,0-1.84-1.33h0a10.45,10.45,0,0,0-2.34.3,110.25,110.25,0,0,1-21.27,3.23,86.42,86.42,0,0,1-15.19-.39,59.55,59.55,0,0,1-13.21-3,36.14,36.14,0,0,1-16.84-11.94,31.72,31.72,0,0,1-5.95-11.69,34.8,34.8,0,0,1-.13-15A53.27,53.27,0,0,1,63.17,96,96.49,96.49,0,0,1,82.92,75.35a103.22,103.22,0,0,1,30.84-16.74,111.15,111.15,0,0,1,32.05-5.88,67.7,67.7,0,0,1,10.42.43,62.7,62.7,0,0,1,14.23,3.22,41.52,41.52,0,0,1,16.46,10.35,26.6,26.6,0,0,1,7.36,17.54,39.23,39.23,0,0,1-1.37,12.42,50,50,0,0,1-13.14,22.59,38.92,38.92,0,0,1-8.83,7,46.52,46.52,0,0,1-5.32,2.28l-.12.05-.14,0a1.29,1.29,0,0,1-.06-.22,4.47,4.47,0,0,1-.06-1.37c.15-1.36.32-2.72.5-4.08.11-.82.21-1.65.31-2.47l.16-1.29c.72-5.92,1.45-11.85,2.15-17.78a8.21,8.21,0,0,0-.05-2.33,2.89,2.89,0,0,0-3.53-2.58,11.23,11.23,0,0,0-1.73.4l-.59.18c-2.92.83-5.85,1.66-8.76,2.52a7.51,7.51,0,0,0-1.74.77,2.24,2.24,0,0,0-1,1.39,2.09,2.09,0,0,0,.29,1.63,2.37,2.37,0,0,0,2.2.95,6.42,6.42,0,0,0,1.38-.39l.43-.16q.34-.1.69-.24a8.38,8.38,0,0,1,1.35-.4l.1,0a.36.36,0,0,1,0,.16,6.48,6.48,0,0,1,0,1.51c-.32,2.62-.65,5.24-1,7.86l-.84,6.75c-.32,2.56-.64,5.12-.93,7.69a46.08,46.08,0,0,0-.35,4.92,4,4,0,0,0,3.61,4.19,7.46,7.46,0,0,0,3-.08,28.31,28.31,0,0,0,5-1.67,68.53,68.53,0,0,0,22.89-17A55.38,55.38,0,0,0,200,97.51,37.3,37.3,0,0,0,201,78.24Z"/><path class="cls-1" d="M140.32,127.37l-.08,0-1.36.62c-.72.34-1.41.65-2.1.93a15.22,15.22,0,0,1,.07-2.57c.16-1.5.34-3,.52-4.49.13-1.12.27-2.24.39-3.36.42-3.74.81-7.49,1.21-11.23a12.32,12.32,0,0,0-1.21-7.21,6,6,0,0,0-6.25-3.25A16.33,16.33,0,0,0,127.72,98a14.23,14.23,0,0,0-4.81,3.53,30.93,30.93,0,0,0-4,5.28l0-.31c.21-1.74.41-3.49.6-5.24a8.46,8.46,0,0,0,0-2.13A2.43,2.43,0,0,0,117,96.81a4.79,4.79,0,0,0-.89.06l-.13,0a43.43,43.43,0,0,0-11,3,14.25,14.25,0,0,0-1.92.93,2.23,2.23,0,0,0-1.18,2,4.56,4.56,0,0,0,.77,2c.67.93,1.8.56,2.56.31a6.45,6.45,0,0,0,.82-.34l.43-.19.25-.09a13.29,13.29,0,0,1,1.46-.5l.22,0c0,.06,0,.14,0,.23a8.2,8.2,0,0,1,0,1.8c-.09,1.21-.23,2.49-.4,3.8q-1.12,8.42-2.27,16.84c-.12.88-.24,1.75-.37,2.62-.17,1.14-.33,2.29-.48,3.43a2.18,2.18,0,0,0,2.46,2.86c1.75,0,3.55,0,5.49,0s2.35-.74,2.65-2.24c0-.15,0-.3.07-.45l.37-2.35c.25-1.6.49-3.21.76-4.81a40.94,40.94,0,0,1,4-12.52,28.13,28.13,0,0,1,3.86-6,5.36,5.36,0,0,1,2.72-1.84c.73-.16.87.15,1,.5a5.92,5.92,0,0,1,.15,1.85c-.52,4.32-1.1,8.67-1.64,12.72-.11.82-.24,1.63-.36,2.45a62,62,0,0,0-.84,7.94v.13c0,.13,0,.3,0,.48a13.17,13.17,0,0,0,.17,1.93c.4,2.22,1.36,3.1,3.51,3.1h.46a7.8,7.8,0,0,0,1.11-.12,35.16,35.16,0,0,0,10.6-3.86,9.22,9.22,0,0,0,1.28-.84,2.7,2.7,0,0,0,.21-3.69A1.87,1.87,0,0,0,140.32,127.37Z"/><path class="cls-1" d="M74,121.31c3-2,6.08-4,9.08-6.13,2.38-1.68,4.75-3.43,7.06-5.12q2.13-1.57,4.29-3.14a3.84,3.84,0,0,0,1.72-3.5,2.29,2.29,0,0,0-1-1.84,2,2,0,0,0-2.2.32l-.18.13h0a5,5,0,0,0-3-4.08,9.14,9.14,0,0,0-2.32-.65,15.39,15.39,0,0,0-4.1-.08A20.56,20.56,0,0,0,73,101c-7,5-10.66,12.13-11,21.22v0a18.85,18.85,0,0,0,1.53,8.33,10.52,10.52,0,0,0,5.65,5.61,14.59,14.59,0,0,0,5.7,1.15c.29,0,.57,0,.86,0a24.15,24.15,0,0,0,14.52-5.85,25.5,25.5,0,0,0,2.15-2.12c.33-.36,1.29-1.69-.41-3.52a2,2,0,0,0-2.94,0l-.89.72c-.68.56-1.33,1.09-2,1.59a13.47,13.47,0,0,1-4.93,2.48c-3.29.75-5.46-.26-6.63-3.09a16.07,16.07,0,0,1-1-5.38C73.56,121.72,73.61,121.58,74,121.31Zm2.65-14.21a11,11,0,0,1,2.74-3.4,4.5,4.5,0,0,1,2.8-1.11h.13c.87,0,1.12.35,1.28,1a10.6,10.6,0,0,1,.23,1.39c0,.17,0,.35.07.52l-.1.82c-.09.68-.17,1.34-.27,2,0,.1,0,.23-.32.43l-8,5.53-1.37,1A25.63,25.63,0,0,1,76.68,107.1Z"/><path class="cls-1" d="M126,186a3,3,0,0,0-2.73-2.86,5,5,0,0,0-5.54,2.2c-.43.62-.55.61-.81-.06a3.34,3.34,0,0,0-2.55-2.17,5.29,5.29,0,0,0-5.19,1.64c-.23.23-.48.44-.72.67,0-.33-.11-.66-.12-1-.05-1-.1-1-1.05-1.08-.78,0-1.56,0-2.34,0-1.26,0-1.33.08-1.34,1.33,0,2,0,4,0,6v6.11c0,.54,0,1.1.75,1.11,1.13,0,2.25,0,3.38,0a.75.75,0,0,0,.78-.84c0-.35,0-.69,0-1,0-2,.05-4,0-6a3,3,0,0,1,1.5-2.7,1.33,1.33,0,0,1,2.2.82,6.15,6.15,0,0,1,.2,1.41c0,.91,0,1.82,0,2.73,0,1.51,0,3,0,4.54,0,.92.14,1,1.07,1.07.61,0,1.21,0,1.82,0,2,0,2,0,2-2s0-3.9,0-5.85a3.06,3.06,0,0,1,1.45-2.72,1.33,1.33,0,0,1,2.26.84,9,9,0,0,1,.2,1.93c0,2.21,0,4.42,0,6.62,0,1,.11,1.11,1.13,1.14.78,0,1.56,0,2.34,0,1.35,0,1.44-.1,1.45-1.51,0-2.38,0-4.76,0-7.14A26.8,26.8,0,0,0,126,186Z"/><path class="cls-1" d="M179.63,183.32c-.65,0-1.3,0-1.94,0s-1.21.06-1.5.75c-.18.42-.49.43-.84.19l-.54-.37a5.73,5.73,0,0,0-8.43,2.46,10.76,10.76,0,0,0-.17,8.58,4.75,4.75,0,0,0,4.22,3.17,5,5,0,0,0,4.85-2.14l.59-.87c0,.5,0,.7,0,.9-.08,1.85-.18,3.71-.22,5.56,0,1.24.06,1.29,1.34,1.31.73,0,1.47,0,2.2,0,1.66,0,1.67,0,1.67-1.63,0-5.41,0-10.82,0-16.23v-.39C180.83,183.39,180.79,183.35,179.63,183.32Zm-5.17,10.39a1.78,1.78,0,0,1-2.84-.6,6.49,6.49,0,0,1,.08-5.73,1.92,1.92,0,0,1,2.34-1.15,2,2,0,0,1,1.59,2.05c0,.52,0,1,0,1.55s0,1,0,1.56A2.67,2.67,0,0,1,174.46,193.71Z"/><path class="cls-1" d="M158.26,165.46c.06-2.09.06-2.1-2-2.1-1.86,0-3.72,0-5.58,0-.85,0-1-.16-1-1s0-2,0-3c0-1.16.08-1.22,1.29-1.23,1.39,0,2.77,0,4.16,0,1,0,1-.11,1.09-1,0-.21,0-.43,0-.65,0-1.09-.1-1.16-1.21-1.18-1.38,0-2.77,0-4.16,0-1.09,0-1.14-.08-1.17-1.21,0-.78,0-1.56,0-2.34,0-1,.1-1.08,1.15-1.09,1.6,0,3.21,0,4.81,0,2.13,0,2.37-.28,2.07-2.39a.75.75,0,0,0-.84-.76l-.78,0H145.56c-1,.05-1,.13-1.09,1,0,.26,0,.52,0,.78v7.79c0,2.77,0,5.54,0,8.31,0,1.26.06,1.32,1.33,1.32H157C158.16,166.68,158.22,166.6,158.26,165.46Z"/><path class="cls-1" d="M57,185.49a3.28,3.28,0,0,0-2.44-2.3,5.24,5.24,0,0,0-5.45,1.52c-.29.3-.57.62-.86.93,0-.44,0-.89,0-1.33,0-.82-.07-1-.94-1-1,0-2.07,0-3.11,0s-1.09.12-1.1,1.16c0,2,0,4.06,0,6.1h0v5.84c0,1.4,0,1.42,1.49,1.44.82,0,1.64,0,2.46,0,1.19,0,1.26-.08,1.27-1.25,0-2.21,0-4.42,0-6.62a3,3,0,0,1,1.44-2.61c1.17-.86,2.22-.38,2.38,1.05a9.37,9.37,0,0,1,0,1.3v7c0,.55,0,1.09.77,1.1,1.21,0,2.42,0,3.63,0a.76.76,0,0,0,.81-.82c0-.22,0-.43,0-.65,0-2.9,0-5.8,0-8.7A7.52,7.52,0,0,0,57,185.49Z"/><path class="cls-1" d="M82.27,183.18c-.93-.18-1.88-.19-2.83-.28v.1c-.39,0-.79,0-1.17.07-3,.42-5.07,1.89-6,4.84a8.81,8.81,0,0,0,.08,5.49,6.2,6.2,0,0,0,3.87,4.09,10.47,10.47,0,0,0,5.49.49c3.72-.66,5.71-2.59,6.23-6.28C88.44,188.4,87.22,184.12,82.27,183.18Zm-.47,10.59a1.81,1.81,0,0,1-1.9,1.28,1.85,1.85,0,0,1-1.76-1.3,7.71,7.71,0,0,1,0-6.41A2,2,0,0,1,80,186a1.88,1.88,0,0,1,1.84,1.39,30.2,30.2,0,0,1,.77,3.28C82.33,191.7,82.14,192.76,81.8,193.77Z"/><path class="cls-1" d="M190,161.21a8.4,8.4,0,0,0,.12-2.83c-.45-3.44-2.2-5.51-5.35-6.21a15.49,15.49,0,0,0-3.47-.28,6.86,6.86,0,0,0-7.15,6.19,9.43,9.43,0,0,0-.06,2.19,6.68,6.68,0,0,0,4.93,6.3,25.9,25.9,0,0,0,3.05.52l0-.13c.39,0,.78,0,1.17,0A6.87,6.87,0,0,0,190,161.21Zm-6,1.26A2.06,2.06,0,0,1,182.2,164a2,2,0,0,1-1.94-1.47,8,8,0,0,1,0-6.29,2,2,0,0,1,1.83-1.43A2,2,0,0,1,184,156.3c.35,1,.54,2.07.8,3.11C184.58,160.47,184.4,161.5,184.08,162.47Z"/><path class="cls-1" d="M198,183.31h-3.63c-.55,0-.77.32-.77.83,0,.35,0,.69,0,1,0,2-.07,4.07,0,6.1a3.23,3.23,0,0,1-1.87,2.72c-.92.34-1.56,0-1.74-.91a7,7,0,0,1-.07-1.3c0-2.42,0-4.84,0-7.27,0-1.11-.11-1.2-1.18-1.22s-1.9,0-2.85,0-1.17.11-1.19,1.22c0,1.73,0,3.46,0,5.19,0,1.47,0,2.94,0,4.41a3.85,3.85,0,0,0,3.19,3.89,5.18,5.18,0,0,0,5.2-1.93,5.08,5.08,0,0,1,.54-.5c0,.24.11.48.14.72a4.38,4.38,0,0,1,0,.51c-.05.88,0,1,.89,1s1.82,0,2.73,0c1.34,0,1.4-.08,1.41-1.39,0-1.94,0-3.89,0-5.84v-.78c0-1.82,0-3.63,0-5.45C198.81,183.82,198.74,183.31,198,183.31Z"/><path class="cls-1" d="M142.81,194.81c-.66-.19-.71-.68-.71-1.23,0-1,0-1.9,0-2.85h.05c-.06-1.25-.11-2.5-.2-3.75a3.79,3.79,0,0,0-3.18-3.61,14.78,14.78,0,0,0-6.68-.09c-2.45.49-2.18.29-2.17,2.9a.53.53,0,0,0,0,.13c0,.43.2.66.66.48.25-.1.48-.21.73-.3a9.35,9.35,0,0,1,4-.52,1.85,1.85,0,0,1,1.79,1.43c.2.79,0,1.1-.88,1.17s-1.81.1-2.71.22a6.23,6.23,0,0,0-3.76,1.86c-1.76,1.83-1.73,6.25,2.12,7.28a5,5,0,0,0,4.43-.82c.34-.24.66-.65,1.1-.17,1.17,1.26,2.68,1.29,4.22,1.16s1.88-.41,1.8-2.11C143.36,195.51,143.41,195,142.81,194.81Zm-6-.88a2.43,2.43,0,0,1-2.33.78,1.18,1.18,0,0,1-.94-1.09,1.42,1.42,0,0,1,.67-1.56,12.78,12.78,0,0,1,1.82-.55c.33.18.87.3,1,.58A1.85,1.85,0,0,1,136.85,193.93Z"/><path class="cls-1" d="M207.55,166.92a18.86,18.86,0,0,0,5.94-.3c1.89-.42,1.9-.39,1.88-2.36,0-1.52,0-1.52-1.55-1.07a10,10,0,0,1-4.61.37,3.13,3.13,0,0,1-2.63-2.21c-.2-.63-.11-.81.54-.83,1.21,0,2.43,0,3.64,0v0h3.76c.52,0,.86-.23.8-.77a15.46,15.46,0,0,0-.8-4.58,4.89,4.89,0,0,0-3.35-3,9.33,9.33,0,0,0-5,.05,8.78,8.78,0,0,0-2.45,1.12,6.59,6.59,0,0,0-2.78,5.2C200.58,162.58,202.46,166.42,207.55,166.92Zm-.83-10.84a1.91,1.91,0,0,1,2.28-1.19,2.48,2.48,0,0,1,1.33,2.56.8.8,0,0,1-.56.41,11,11,0,0,1-1.41,0v0h-.51C206.25,157.89,206,157.51,206.72,156.08Z"/><path class="cls-1" d="M216,195.05c-.05-1.05-.15-1.16-1.16-.82a10.72,10.72,0,0,1-4.35.52,3.22,3.22,0,0,1-3.08-2.18c-.25-.7-.15-.88.57-.9,1.17,0,2.34,0,3.51,0h0c1.17,0,2.34,0,3.5,0,.86,0,1-.15,1-1a10.49,10.49,0,0,0-.7-4.33,4.85,4.85,0,0,0-4.17-3.25,15.38,15.38,0,0,0-2.45,0,6.75,6.75,0,0,0-6.91,6.26c-.56,4,1.32,7.9,6,8.67a18.68,18.68,0,0,0,6.06-.16C216.06,197.45,216.08,197.4,216,195.05Zm-8.53-7.75a3.48,3.48,0,0,1,.34-.56,1.8,1.8,0,0,1,2.29-.59,2.36,2.36,0,0,1,.89,2.41.83.83,0,0,1-.56.42,11.22,11.22,0,0,1-1.42,0v0h-.52C207,189,206.8,188.59,207.43,187.3Z"/><path class="cls-1" d="M70.75,177.16a12.92,12.92,0,0,0-4.38-.26c-3.09.41-4.57,2-4.79,5.14a1.15,1.15,0,0,0,0,.26c0,.62-.19,1-.87,1s-1,.37-1,1.05c0,.35,0,.69,0,1,0,.52.25.74.78.82,1,.16,1,.19,1,1.2,0,1.51,0,3,0,4.54h0c0,1.6,0,3.2,0,4.8,0,.95.12,1.06,1,1.09s1.91,0,2.86,0c1.25,0,1.31-.07,1.32-1.33,0-2.81,0-5.62,0-8.43,0-2-.11-1.86,1.81-1.87s2.08-.25,1.85-2.1c-.07-.52-.29-.79-.82-.79s-1.3,0-1.94,0c-.27,0-.7-.14-.76-.33a2.56,2.56,0,0,1,.27-2.23,1.58,1.58,0,0,1,1.61-.87,17.56,17.56,0,0,1,2.15.48c.43.12.68,0,.71-.45s0-1,0-1.55A1,1,0,0,0,70.75,177.16Z"/><path class="cls-1" d="M168.49,166.91a17.92,17.92,0,0,0,1.94,0c2.29-.25,2.62-.68,2.3-3a.57.57,0,0,0,0-.13c0-.44-.28-.59-.71-.5a17.84,17.84,0,0,1-1.91.36,3.78,3.78,0,0,1-4.52-3.54,6.79,6.79,0,0,1,0-.78c-.06-3.42,1.89-5,5.18-4.06,2.11.58,2.17.53,2-1.71,0-.09,0-.18,0-.26a.9.9,0,0,0-.85-.95,20,20,0,0,0-5.28-.46,6.75,6.75,0,0,0-6.41,5.62,10.24,10.24,0,0,0-.08,3.36,6.32,6.32,0,0,0,4.8,5.66,32.19,32.19,0,0,0,3.56.57Z"/><path class="cls-1" d="M192.86,165.61c0,.9.19,1,1.1,1.07s1.64,0,2.46,0c1.78,0,1.79,0,1.8-1.82v-17c0-.3,0-.61,0-.91,0-.5-.22-.83-.77-.83h-3.76a.73.73,0,0,0-.81.79c0,.35,0,.69,0,1v13.61C192.84,162.93,192.82,164.27,192.86,165.61Z"/><path class="cls-1" d="M153.87,194.77c-1.72-.13-2.08-.5-2.1-2.23,0-1.56,0-3.11,0-4.67s-.09-1.68,1.61-1.68c1.09,0,1.16-.1,1.19-1.2,0-.3,0-.61,0-.91,0-.52-.31-.75-.83-.79s-1.38.06-1.71-.27-.19-1.12-.26-1.71c-.08-.74-.21-.88-1-.82-.95.08-1.89.21-2.83.36-1.27.2-1.28.21-1.38,1.5,0,.46-.07.89-.66.92s-.85.48-.84,1.06v.91c0,.52.13.95.77,1s.73.49.72,1v3.5h0c0,1.17-.05,2.34,0,3.5a3.68,3.68,0,0,0,2.86,3.58,8.44,8.44,0,0,0,3.46.3c1.86-.21,2.1-.53,1.93-2.4C154.74,194.91,154.67,194.83,153.87,194.77Z"/><path class="cls-1" d="M39.21,179.21a.7.7,0,0,0-.8-.79l-2.59,0c-1.81,0-1.81,0-1.82,1.76V196c0,.3,0,.6,0,.91.06.77.16.91.92.94q1.62.06,3.24,0c.88,0,1-.2,1-1.11,0-.22,0-.44,0-.65V180.12C39.23,179.82,39.22,179.51,39.21,179.21Z"/><path class="cls-1" d="M100.33,183a5.31,5.31,0,0,0-4,2.2,3.2,3.2,0,0,1-.54.5c0-.24,0-.48,0-.72s.06-.34.07-.52c0-.91-.08-1.08-1-1.11s-1.91,0-2.86,0c-1.24,0-1.31.09-1.32,1.35,0,2,0,3.9,0,5.85h0c0,2.08,0,4.16,0,6.23,0,.92.17,1.06,1.06,1.1s1.82,0,2.73,0c1.34,0,1.41-.08,1.42-1.39,0-2,0-4.07,0-6.11a2.82,2.82,0,0,1,2.89-3.09,7.22,7.22,0,0,1,1.67.11c.5.08.78-.05.79-.56,0-1,0-2.07,0-3.11C101.23,183,101,182.89,100.33,183Z"/><path class="cls-1" d="M161.61,183.3c-1,0-2,0-3,0s-1.16.09-1.17,1.21c0,2,0,4,0,6h0c0,2.12,0,4.23,0,6.35,0,.87.12,1,1,1,1,0,2.07,0,3.11,0s1.1-.11,1.11-1.14c0-2.12,0-4.24,0-6.36s0-4,0-6C162.65,183.42,162.55,183.33,161.61,183.3Z"/><path class="cls-1" d="M164.57,93.75a7.15,7.15,0,0,0,5.19-6.62,4.69,4.69,0,0,0-6.08-4.92,7.41,7.41,0,0,0-5.43,5.89,5,5,0,0,0,1.5,4.63A4.81,4.81,0,0,0,163,94,5.94,5.94,0,0,0,164.57,93.75Z"/><path class="cls-1" d="M161.78,181c.58,0,.89-.25.88-.85s0-1.47,0-2.21-.31-.85-.89-.85h-3.5c-.52,0-.82.23-.82.78,0,.77,0,1.55,0,2.33,0,.54.29.78.81.78s1.12,0,1.68,0h0C160.57,181,161.17,181,161.78,181Z"/></svg>