<svg id="Calque_1" data-name="Calque 1" xmlns="http://www.w3.org/2000/svg" viewBox="0 0 250 250"><defs><style>.cls-1{fill:#00c9ff;}</style></defs><title>Plan de travail 1 copie</title><path class="cls-1" d="M127.82,35c50.11.35,90.63,41.72,90.17,92.06-.44,50-42,90.52-92.32,89.93C76,216.41,35.75,175.31,36,125.41,36.25,75.24,77.47,34.65,127.82,35ZM63.38,73.06c-9.1,10.42-13.85,21.12-16.9,32.62a13.77,13.77,0,0,0,0,6.78c6.7,25.62,20.38,46.86,40.42,64.1,3,2.61,5.38,3.3,8.08-.26q5.06-6.69,10.44-13.12c2.81-3.35,1.68-5.56-1.21-8.24a147.83,147.83,0,0,1-12.92-13.57C75.3,122.1,66.73,99.61,63.38,73.06ZM118,208.5c6.54,1.47,15.47.48,24.55-.94a28.53,28.53,0,0,0,17.6-9.79,128,128,0,0,0,29.64-57.31c2.54-10.79,2.43-10.82-8.19-12.8-2.92-.54-5.83-1.17-8.77-1.44-8-.75-8.16-.72-9.88,7-4.4,19.71-13.49,37-26.31,52.48C130.37,193.33,124.15,201,118,208.5ZM204.77,97.19C200.14,85,194.5,76.19,187,68.73a23.88,23.88,0,0,0-9.83-6c-24.49-6.81-48.74-5.15-72.76,2.77-4.71,1.55-6.59,3.85-4.67,8.64,1.58,4,3.34,7.88,4.57,12,1.75,5.77,4.75,6.18,10.29,4.5,26.32-8,52.55-6.72,78.48,2.16C196.36,93.92,199.61,95.24,204.77,97.19ZM210,127.3c0-2.59,0-4.53,0-6.47.05-8.63-3-14.21-11.95-17.76-22-8.74-44.37-11.89-67.62-8.18-5.9,1-11.51,3.77-17.25,5.73,3.18,4.86,6.48,9.65,9.5,14.61,3.2,5.25,7.33,6.14,13.29,5a126.08,126.08,0,0,1,66.1,4.51C204.44,125.5,206.86,126.28,210,127.3ZM84.26,197c3.52,1.95,5.84,3.09,8,4.45,6.37,4,12.13,3.64,17.69-1.7,6.65-6.38,14.16-12,20.2-18.83a107.71,107.71,0,0,0,26.09-55.19c-5.51.54-10,1.26-14.55,1.38-8.28.2-12.87,3.82-15.17,12.15-1.9,6.87-5.71,13.27-9.13,19.64C109.49,173.59,98.12,185.46,84.26,197Zm28.46-45c3-7.05,5.36-12.78,7.83-18.48,1.91-4.4,1-7.69-2.33-11.41a124,124,0,0,1-27.79-51.6c-1.4-5.31-2.45-10.72-3.87-17-3.57,2.36-6.45,4.45-9.51,6.24-4.48,2.61-6.1,6.17-5.64,11.45C74.24,103,87.42,129.6,112.72,151.93Zm64.11,38.33c9.43-4.42,15.93-11.79,20.37-20.36,4.62-8.93,7.63-18.72,11.18-28.19,2-5.24-1.47-7.13-5.7-8.09-5.11-1.15-3.65,3.16-4.52,5.58-4.54,12.63-8.9,25.32-13.81,37.8C182.51,181.68,179.38,185.86,176.83,190.26ZM46.56,136.62c-.6,2.88-1,3.79-.93,4.65a36.8,36.8,0,0,0,1,5.81,82.78,82.78,0,0,0,23.4,39.37c7.16,6.77,7.5,6.69,14.12-1.83A142.35,142.35,0,0,1,46.56,136.62ZM158,49.3c-12.92-6-27.28-7.7-42.07-5.56a111.9,111.9,0,0,0-18,4.68c-4.58,1.48-2.69,5.53-2,8.37.24.92,3.7,1.74,5.46,1.4,4.17-.79,8.12-2.84,12.29-3.42C128.57,52.72,143.5,51.06,158,49.3Z"/></svg>