<svg id="Calque_1" data-name="Calque 1" xmlns="http://www.w3.org/2000/svg" viewBox="0 0 250 250"><defs><style>.cls-1{fill:#fff;}</style></defs><title>Plan de travail 1 copie 2</title><path class="cls-1" d="M34,34V185.88H136.15a22.06,22.06,0,0,1,.77,5.78v.49h-6.27V216h66.52V192.15h-5v-2.84c-.43-1.26.36-3.43.36-3.43H216V34ZM192.15,209.72H136.92V197.17h55.23Zm-49-17.57v-.48a26.62,26.62,0,0,0-3.26-12.74l-3.28-6-10.79-28.51a2.65,2.65,0,0,0-.23-.48,2.94,2.94,0,0,1,.24-3.35,3.18,3.18,0,0,1,3.28-1.09,3.12,3.12,0,0,1,1.91,1.41l6.67,11.19a6.18,6.18,0,0,0,4.35,3,6.25,6.25,0,0,0,7.39-6V106.89a3.14,3.14,0,1,1,6.27,0V134.1a3,3,0,0,0,2.78,3l25.28,2.11a9.15,9.15,0,0,1,8.34,9.06v25a8.88,8.88,0,0,1-1.56,5.05l-2.09,3a14.77,14.77,0,0,0-2.62,8.31l0,2.45Zm66.52-12.55H196.84a15.15,15.15,0,0,0,1.59-6.71V148.3a15.27,15.27,0,0,0-13.91-15.11L162,131.31V107.17a9.42,9.42,0,0,0-18.83-.37v41.88l-6.7-11.22a9.59,9.59,0,0,0-12.64-3.27,9,9,0,0,0-3.8,12.12l10.78,28.47.16.36,2.44,4.46H40.28V64.12H209.72ZM40.28,59.1V40.28H209.72V59.1Z"/><path class="cls-1" d="M46.55,46.55h6.28v6.28H46.55Z"/><path class="cls-1" d="M57.85,46.55h6.27v6.28H57.85Z"/><path class="cls-1" d="M70.4,46.55h6.28v6.28H70.4Z"/><path class="cls-1" d="M89.23,89.19l8.16-7-4-4.61-4.21,3.6V76.68H52.83v36.4h36.4ZM57.85,106.8V83H81.7v3.58L69.8,96.72,62.89,89.9l-4.17,4.24,10.8,10.67L81.7,94.39V106.8Z"/><path class="cls-1" d="M89.23,138.14l8.16-7-4-4.61-4.21,3.6v-4.52H52.83V162h36.4ZM57.85,154.5V130.65H81.7v3.58L69.8,144.42l-6.91-6.83-4.17,4.25,10.8,10.67L81.7,142.09V154.5Z"/><path class="cls-1" d="M124.37,76.68h12.55V83H124.37Z"/><path class="cls-1" d="M143.2,76.68h55.23V83H143.2Z"/><path class="cls-1" d="M125.63,88h72.8v6.28h-72.8Z"/><path class="cls-1" d="M124.37,104.29h12.55v6.28H124.37Z"/><path class="cls-1" d="M167.05,104.29h30.12v6.28H167.05Z"/><path class="cls-1" d="M167.05,115.59h30.12v6.27H167.05Z"/><path class="cls-1" d="M124.37,115.59h12.55v6.27H124.37Z"/></svg>